<svg xmlns="http://www.w3.org/2000/svg" width="24" height="24" viewBox="0 0 24 24" >
<path d="M8.43 3.5H15.57C18.29 3.5 20.5 5.71 20.5 8.43V15.57C20.5 16.8775 19.9806 18.1315 19.056 19.056C18.1315 19.9806 16.8775 20.5 15.57 20.5H8.43C5.71 20.5 3.5 18.29 3.5 15.57V8.43C3.5 7.12248 4.01941 5.86852 4.94396 4.94396C5.86852 4.01941 7.12248 3.5 8.43 3.5ZM8.26 5.2C7.44844 5.2 6.67011 5.52239 6.09625 6.09625C5.52239 6.67011 5.2 7.44844 5.2 8.26V15.74C5.2 17.4315 6.5685 18.8 8.26 18.8H15.74C16.5516 18.8 17.3299 18.4776 17.9037 17.9037C18.4776 17.3299 18.8 16.5516 18.8 15.74V8.26C18.8 6.5685 17.4315 5.2 15.74 5.2H8.26ZM16.4625 6.475C16.7443 6.475 17.0145 6.58694 17.2138 6.7862C17.4131 6.98546 17.525 7.25571 17.525 7.5375C17.525 7.81929 17.4131 8.08954 17.2138 8.2888C17.0145 8.48806 16.7443 8.6 16.4625 8.6C16.1807 8.6 15.9105 8.48806 15.7112 8.2888C15.5119 8.08954 15.4 7.81929 15.4 7.5375C15.4 7.25571 15.5119 6.98546 15.7112 6.7862C15.9105 6.58694 16.1807 6.475 16.4625 6.475ZM12 7.75C13.1272 7.75 14.2082 8.19777 15.0052 8.9948C15.8022 9.79183 16.25 10.8728 16.25 12C16.25 13.1272 15.8022 14.2082 15.0052 15.0052C14.2082 15.8022 13.1272 16.25 12 16.25C10.8728 16.25 9.79183 15.8022 8.9948 15.0052C8.19777 14.2082 7.75 13.1272 7.75 12C7.75 10.8728 8.19777 9.79183 8.9948 8.9948C9.79183 8.19777 10.8728 7.75 12 7.75ZM12 9.45C11.3237 9.45 10.6751 9.71866 10.1969 10.1969C9.71866 10.6751 9.45 11.3237 9.45 12C9.45 12.6763 9.71866 13.3249 10.1969 13.8031C10.6751 14.2813 11.3237 14.55 12 14.55C12.6763 14.55 13.3249 14.2813 13.8031 13.8031C14.2813 13.3249 14.55 12.6763 14.55 12C14.55 11.3237 14.2813 10.6751 13.8031 10.1969C13.3249 9.71866 12.6763 9.45 12 9.45Z" fill="url(#img1)"></path>
<path d="M8.43 3.5H15.57C18.29 3.5 20.5 5.71 20.5 8.43V15.57C20.5 16.8775 19.9806 18.1315 19.056 19.056C18.1315 19.9806 16.8775 20.5 15.57 20.5H8.43C5.71 20.5 3.5 18.29 3.5 15.57V8.43C3.5 7.12248 4.01941 5.86852 4.94396 4.94396C5.86852 4.01941 7.12248 3.5 8.43 3.5ZM8.26 5.2C7.44844 5.2 6.67011 5.52239 6.09625 6.09625C5.52239 6.67011 5.2 7.44844 5.2 8.26V15.74C5.2 17.4315 6.5685 18.8 8.26 18.8H15.74C16.5516 18.8 17.3299 18.4776 17.9037 17.9037C18.4776 17.3299 18.8 16.5516 18.8 15.74V8.26C18.8 6.5685 17.4315 5.2 15.74 5.2H8.26ZM16.4625 6.475C16.7443 6.475 17.0145 6.58694 17.2138 6.7862C17.4131 6.98546 17.525 7.25571 17.525 7.5375C17.525 7.81929 17.4131 8.08954 17.2138 8.2888C17.0145 8.48806 16.7443 8.6 16.4625 8.6C16.1807 8.6 15.9105 8.48806 15.7112 8.2888C15.5119 8.08954 15.4 7.81929 15.4 7.5375C15.4 7.25571 15.5119 6.98546 15.7112 6.7862C15.9105 6.58694 16.1807 6.475 16.4625 6.475ZM12 7.75C13.1272 7.75 14.2082 8.19777 15.0052 8.9948C15.8022 9.79183 16.25 10.8728 16.25 12C16.25 13.1272 15.8022 14.2082 15.0052 15.0052C14.2082 15.8022 13.1272 16.25 12 16.25C10.8728 16.25 9.79183 15.8022 8.9948 15.0052C8.19777 14.2082 7.75 13.1272 7.75 12C7.75 10.8728 8.19777 9.79183 8.9948 8.9948C9.79183 8.19777 10.8728 7.75 12 7.75ZM12 9.45C11.3237 9.45 10.6751 9.71866 10.1969 10.1969C9.71866 10.6751 9.45 11.3237 9.45 12C9.45 12.6763 9.71866 13.3249 10.1969 13.8031C10.6751 14.2813 11.3237 14.55 12 14.55C12.6763 14.55 13.3249 14.2813 13.8031 13.8031C14.2813 13.3249 14.55 12.6763 14.55 12C14.55 11.3237 14.2813 10.6751 13.8031 10.1969C13.3249 9.71866 12.6763 9.45 12 9.45Z" fill="currentColor"></path>
<defs>
  <pattern id="img1" patternUnits="userSpaceOnUse" width="40" height="40">
    <image href="./instaback.png" x="0" y="0" width="40" height="40" />
  </pattern>
</defs>
</svg>
