<svg width="16" height="16" viewBox="0 0 16 16" fill="none" xmlns="http://www.w3.org/2000/svg">
<path fill-rule="evenodd" clip-rule="evenodd" d="M12.895 5.16849C13.9953 6.30781 14.7066 7.7662 14.927 9.33463L7.5 10.3784L8.80236 2.99237C10.3621 3.2674 11.7948 4.02917 12.895 5.16849ZM12.311 14.0516C13.078 13.2593 13.6118 12.2709 13.8538 11.195L12.9757 10.9975C12.77 11.912 12.3163 12.7521 11.6644 13.4256C11.0124 14.0991 10.1875 14.5799 9.28021 14.8151C8.3729 15.0504 7.41829 15.0311 6.52124 14.7593C5.62418 14.4876 4.81937 13.9738 4.19521 13.2745C3.57104 12.5753 3.15166 11.7175 2.98312 10.7955C2.81458 9.8734 2.90341 8.92274 3.23985 8.04788C3.57629 7.17302 4.14732 6.40779 4.89023 5.83625C5.63314 5.26471 6.51919 4.90896 7.45107 4.80807L7.3542 3.9133C6.25787 4.03199 5.21546 4.45052 4.34144 5.12292C3.46743 5.79532 2.79563 6.69559 2.39982 7.72484C2.00401 8.75409 1.89951 9.87251 2.09779 10.9573C2.29607 12.042 2.78946 13.0512 3.52377 13.8739C4.25809 14.6965 5.20492 15.3009 6.26028 15.6207C7.31564 15.9404 8.43871 15.9631 9.50613 15.6863C10.5736 15.4095 11.5441 14.8439 12.311 14.0516Z" fill="#0072BC"/>
</svg>
