<svg width="16" height="16" viewBox="0 0 16 16" fill="none" xmlns="http://www.w3.org/2000/svg">
<path d="M9.69231 3H2V11.4615H3.81042C4.06155 10.5737 4.87789 9.92308 5.84618 9.92308C6.81447 9.92308 7.63081 10.5737 7.88194 11.4615H9.69231V3Z" fill="#0072BC"/>
<path fill-rule="evenodd" clip-rule="evenodd" d="M13.5384 4.53844H10.4615V11.4615H10.7334C10.9846 10.5736 11.8009 9.92308 12.7692 9.92308C13.7375 9.92308 14.5538 10.5736 14.8049 11.4615H15.0769V7.5299L13.5384 4.53844ZM11.2308 5.3077H13.1539L14.3077 7.61539H11.2308V5.3077Z" fill="#0072BC"/>
<path d="M13.923 11.8461C13.923 12.4834 13.4065 13 12.7692 13C12.132 13 11.6154 12.4834 11.6154 11.8461C11.6154 11.2089 12.132 10.6923 12.7692 10.6923C13.4065 10.6923 13.923 11.2089 13.923 11.8461Z" fill="#0072BC"/>
<path d="M6.99995 11.8462C6.99995 12.4834 6.48336 13 5.84611 13C5.20886 13 4.69226 12.4834 4.69226 11.8462C4.69226 11.2089 5.20886 10.6923 5.84611 10.6923C6.48336 10.6923 6.99995 11.2089 6.99995 11.8462Z" fill="#0072BC"/>
</svg>
